# xmcd
#
# Track frame offsets: 
#        150
#        21151
#        43112
#        63884
#        78792
#        90635
#        103001
#        125681
#        139272
#        154937
#        174726
#        190463
#        200735
#        219811
#        239604
#
# Disc length: 3418 seconds
#
# Revision: 0
# Processed by: cddbd v1.5.2PL0 Copyright (c) Steve Scherf et al.
# Submitted via: ExactAudioCopy v0.99pb5
#
DISCID=d60d580f
DTITLE=Jimmy Rogers and Left Hand Frank - The Dirty Dozens
DYEAR=2009
DGENRE=Blues
TTITLE0=Take A Walk
TTITLE1=You're Sweet
TTITLE2=Mean Red Spider
TTITLE3=Fishing In My Pond
TTITLE4=Crazy Woman Blues
TTITLE5=Information Please
TTITLE6=Dirty Dozens
TTITLE7=Oh Baby
TTITLE8=Honky Tonk
TTITLE9=One Room Country Shack
TTITLE10=Cleo's Gone
TTITLE11=Baby Please
TTITLE12=Rock This House
TTITLE13=Chicago Bound
TTITLE14=Blue And Lonesome
EXTD=
EXTT0=
EXTT1=
EXTT2=
EXTT3=
EXTT4=
EXTT5=
EXTT6=
EXTT7=
EXTT8=
EXTT9=
EXTT10=
EXTT11=
EXTT12=
EXTT13=
EXTT14=
PLAYORDER=
